<?xml version="1.0" encoding="utf-8"?>
<!-- Generator: Adobe Illustrator 19.0.0, SVG Export Plug-In . SVG Version: 6.00 Build 0)  -->
<svg version="1.1" id="Layer_1" xmlns="http://www.w3.org/2000/svg" xmlns:xlink="http://www.w3.org/1999/xlink" x="0px" y="0px"
	 viewBox="0 0 74.3 82.8" style="enable-background:new 0 0 74.3 82.8;" xml:space="preserve">
<style type="text/css">
	.st0{fill:#FEFDFE;}
	.st1{fill:#001F79;}
	.st2{fill:#FD0000;}
	.st3{fill:#003396;}
	.st4{fill:#FCFDFD;}
	.st5{fill:#FBFCFD;}
	.st6{fill:#FCFCFD;}
	.st7{fill:#000268;}
	.st8{fill:#04217A;}
	.st9{fill:#032079;}
	.st10{fill:#06227A;}
</style>
<g>
	<g>
		<path class="st0" d="M70.2,0c1.3,0,2.7,0,4,0c0.2,0,0.2,0,0.2,0.2c0,11.1,0,22.3,0,33.4c0,16.3,0,32.7,0,49c0,0.2,0,0.2-0.2,0.2
			c-24.6,0-49.3,0-73.9,0c-0.1,0-0.2,0.1-0.2,0c24.7,0,49.4,0,74,0c0.2,0,0.3,0,0.3-0.3c0-4.8,0-9.6,0-14.3c0-0.3,0-0.3-0.3-0.3
			c-24.7,0-49.3,0-74,0C0,45.4,0,22.8,0,0.2C0,0.1,0.1,0,0.2,0c1.3,0,2.7,0,4,0c0,9.8,0,19.5,0,29.3c0,0.2,0.1,0.3,0.3,0.3
			c3.1,0,6.3,0,9.4,0c0.2,0,0.3,0,0.3-0.3c0-6.3,0-12.7,0-19c0-0.2,0-0.3,0.3-0.3c6.4,0,12.9,0,19.3,0c0.2,0,0.3,0,0.3-0.3
			c0-3.2,0-6.3,0-9.5c0-0.1,0-0.1,0-0.2c2.1,0,4.2,0,6.3,0c0,0.1,0,0.2,0,0.2c0,3.2,0,6.3,0,9.5c0,0.2,0.1,0.3,0.3,0.3
			c6.4,0,12.9,0,19.3,0c0.2,0,0.3,0.1,0.3,0.3c0,6.3,0,12.7,0,19c0,0.2,0.1,0.3,0.3,0.3c3.1,0,6.3,0,9.4,0c0.2,0,0.3,0,0.3-0.3
			C70.2,19.5,70.2,9.8,70.2,0z M37.2,20.8c-3.9,0-7.9,0-11.8,0c-0.2,0-0.3,0.1-0.3,0.3c0,7.8,0,15.5,0,23.3c0,0.2,0,0.3,0.3,0.3
			c7.8,0,15.7,0,23.5,0c0.2,0,0.3-0.1,0.3-0.3c0-7.8,0-15.5,0-23.3c0-0.2,0-0.3-0.3-0.3C45.1,20.8,41.1,20.8,37.2,20.8z M19.1,65.4
			c4.9,0,9.8,0,14.7,0c0.2,0,0.2,0,0.2-0.2c0-3.2,0-6.3,0-9.5c0-0.2,0-0.3-0.3-0.3c-6.4,0-12.9,0-19.3,0c-0.2,0-0.3-0.1-0.3-0.3
			c0-6.3,0-12.7,0-19c0-0.2,0-0.3-0.3-0.3c-3.2,0-6.3,0-9.5,0c-0.2,0-0.2,0.1-0.2,0.3c0,9.7,0,19.4,0,29c0,0.2,0.1,0.2,0.2,0.2
			C9.4,65.4,14.3,65.4,19.1,65.4z M55.3,65.4c4.9,0,9.8,0,14.7,0c0.2,0,0.2,0,0.2-0.2c0-9.7,0-19.4,0-29.1c0-0.2-0.1-0.2-0.2-0.2
			c-3.2,0-6.3,0-9.5,0c-0.2,0-0.3,0-0.3,0.3c0,6.3,0,12.7,0,19c0,0.2-0.1,0.3-0.3,0.3c-6.4,0-12.9,0-19.3,0c-0.2,0-0.3,0-0.3,0.3
			c0,3.2,0,6.3,0,9.5c0,0.2,0.1,0.2,0.3,0.2C45.5,65.4,50.4,65.4,55.3,65.4z"/>
		<path class="st1" d="M0,68c24.7,0,49.3,0,74,0c0.3,0,0.3,0,0.3,0.3c0,4.8,0,9.6,0,14.3c0,0.2-0.1,0.3-0.3,0.3c-24.7,0-49.4,0-74,0
			C0,77.9,0,72.9,0,68z M62.2,78.9c0-0.1,0-0.2,0-0.3c0-2.1,0-4.3,0-6.4c0-0.1,0-0.2,0-0.3c0,0,0,0.1,0,0.1c0,2.2,0,4.4,0,6.7
			C62.2,78.8,62.2,78.9,62.2,78.9c0.7,0.1,1.5,0,2.2,0c0.1,0,0.1-0.1,0.1-0.2c0-0.5,0-0.9,0-1.4c0-0.5,0.1-0.8,0.5-1.1
			c0.1-0.1,0.2-0.1,0.2,0c0.5,0.8,1,1.6,1.4,2.4c0.1,0.2,0.2,0.3,0.5,0.3c0.2,0,0.4,0,0.6,0c0.6,0,1.2,0,1.8,0c0-0.1,0-0.1-0.1-0.2
			c-0.9-1.4-1.7-2.7-2.6-4.1c-0.1-0.1-0.1-0.2,0-0.3c0.8-0.8,1.5-1.6,2.3-2.4c0,0,0.1-0.1,0.1-0.1c-0.9,0-1.7,0-2.5,0
			c-0.1,0-0.2,0.1-0.2,0.1c-0.4,0.4-0.7,0.8-1.1,1.2c-0.3,0.3-0.6,0.6-0.9,1c0-0.7,0-1.4,0-2.1c0-0.2,0-0.2-0.2-0.2
			c-0.6,0-1.2,0-1.8,0c-0.2,0-0.2,0-0.2,0.2c0,1.8,0,3.5,0,5.3C62.3,77.9,62.2,78.4,62.2,78.9z M12.8,71.9c-0.1,0.1-0.1,0.1-0.1,0.2
			c0,2.2,0,4.4,0,6.5c0,0.1,0,0.2,0.1,0.2c0.1,0.1,0.2,0,0.2,0c0.8,0,1.7,0,2.5,0c0.5,0,1,0,1.5-0.1c1-0.2,1.7-0.6,2.2-1.5
			c0.4-0.9,0.5-1.9,0.4-2.9c-0.1-0.8-0.5-1.5-1.1-2c-0.5-0.4-1.2-0.6-1.8-0.6c-1.2-0.1-2.4,0-3.6,0C12.9,71.9,12.9,71.9,12.8,71.9z
			 M38.4,78.9c0.1,0,0.2,0,0.4,0c1.3,0,2.6,0,3.9,0c0.5,0,0.9-0.2,1.3-0.4c1-0.7,1.1-2.3,0.2-3c-0.1-0.1-0.3-0.2-0.5-0.3
			c0.1,0,0.1-0.1,0.1-0.1c0.6-0.4,0.9-1,0.7-1.7c-0.1-0.7-0.6-1.1-1.2-1.3c-0.5-0.2-1.1-0.2-1.7-0.2c-1.1,0-2.2,0-3.3,0
			c-0.1,0-0.1,0.1-0.1,0.2c0,2.2,0,4.5,0,6.7C38.3,78.8,38.3,78.9,38.4,78.9z M56.1,75.3c0.1,0.1,0.1,0.1,0.1,0.2
			c0.7,1.1,1.4,2.2,2.2,3.3c0.1,0.1,0.1,0.2,0.2,0.2c0.6,0,1.3,0,1.9,0c0.1,0,0.2,0,0.2-0.2c0-2.2,0-4.5,0-6.7c0-0.1,0-0.2-0.2-0.2
			c-0.6,0-1.2,0-1.8,0c-0.2,0-0.2,0-0.2,0.2c0,1.1,0,2.2,0,3.3c0,0.1,0,0.1,0,0.2c-0.1,0-0.1-0.1-0.1-0.1c-0.7-1.2-1.5-2.3-2.2-3.5
			c-0.1-0.1-0.1-0.2-0.3-0.2c-0.6,0-1.2,0-1.8,0c-0.1,0-0.2,0-0.2,0.2c0,2.2,0,4.5,0,6.7c0,0.2,0,0.2,0.2,0.2c0.6,0,1.2,0,1.8,0
			c0.2,0,0.3,0,0.3-0.3C56.1,77.5,56.1,76.4,56.1,75.3z M11.4,75.4c0-1.1,0-2.2,0-3.4c0-0.1,0-0.2-0.2-0.2c-0.6,0-1.3,0-1.9,0
			c-0.2,0-0.2,0-0.2,0.2c0,0.7,0,1.3,0,2c0,0.2,0,0.2-0.2,0.2c-0.6,0-1.2,0-1.8,0c-0.2,0-0.2,0-0.2-0.2c0-0.7,0-1.3,0-2
			c0-0.2,0-0.2-0.2-0.2c-0.6,0-1.3,0-1.9,0c-0.2,0-0.2,0.1-0.2,0.2c0,2.2,0,4.4,0,6.6c0,0.2,0.1,0.2,0.2,0.2c0.6,0,1.3,0,1.9,0
			c0.2,0,0.2,0,0.2-0.2c0-0.8,0-1.6,0-2.4c0-0.1,0-0.2,0.2-0.2c0.6,0,1.2,0,1.8,0c0.2,0,0.2,0,0.2,0.2c0,0.8,0,1.6,0,2.4
			c0,0.2,0,0.2,0.2,0.2c0.6,0,1.3,0,1.9,0c0.2,0,0.2-0.1,0.2-0.2C11.4,77.6,11.4,76.5,11.4,75.4z M32.8,74.6c0.3,0,0.6,0,0.9,0
			c0.1,0,0.2,0,0.2-0.2c-0.1-0.9-0.5-1.6-1.2-2.1c-1-0.7-2.1-0.8-3.3-0.5c-1,0.2-1.7,0.9-2.2,1.8c-0.4,0.9-0.5,1.9-0.2,2.9
			c0.3,1.1,1,1.9,2.1,2.3c0.7,0.2,1.4,0.3,2.1,0.2c1.3-0.1,2.6-1.1,2.8-2.7c0-0.2,0-0.2-0.2-0.2c-0.6,0-1.2,0-1.8,0
			c-0.2,0-0.2,0-0.2,0.2c-0.1,0.5-0.4,0.9-0.9,0.9c-0.6,0.1-1.2-0.1-1.4-0.6c-0.4-0.9-0.3-1.8,0-2.6c0.2-0.5,0.8-0.7,1.3-0.6
			c0.5,0.1,0.8,0.4,0.9,0.9c0,0.1,0.1,0.2,0.2,0.2C32.2,74.6,32.5,74.6,32.8,74.6z M45.5,78.9c0.7,0,1.4,0,2,0
			c0.2,0,0.2-0.1,0.3-0.2c0-0.2,0.1-0.4,0.2-0.6c0-0.1,0.1-0.2,0.2-0.2c0.7,0,1.3,0,2,0c0.1,0,0.2,0,0.2,0.1
			c0.1,0.2,0.1,0.4,0.2,0.6c0,0.1,0.1,0.2,0.2,0.2c0.6,0,1.3,0,1.9,0c0.2,0,0.2,0,0.2-0.2c-0.8-2.2-1.6-4.4-2.4-6.7
			c0-0.1-0.1-0.2-0.3-0.2c-0.7,0-1.3,0-2,0c-0.2,0-0.2,0.1-0.3,0.2c-0.5,1.4-1,2.7-1.5,4.1C46.2,77.1,45.9,78,45.5,78.9z M20.7,75.4
			c0,1.1,0,2.2,0,3.3c0,0.2,0,0.2,0.2,0.2c0.6,0,1.2,0,1.9,0c0.2,0,0.2,0,0.2-0.2c0-0.7,0-1.4,0-2.1c0-0.2,0-0.2,0.2-0.2
			c0.7,0,1.4,0,2.2,0c0.1,0,0.2,0,0.2-0.2c0-0.4,0-0.9,0-1.3c0-0.2,0-0.2-0.2-0.2c-0.7,0-1.4,0-2.1,0c-0.2,0-0.2-0.1-0.2-0.2
			c0-0.2,0-0.4,0-0.7c0-0.2,0-0.2,0.2-0.2c0.9,0,1.9,0,2.8,0c0.2,0,0.2,0,0.2-0.2c0-0.4,0-0.9,0-1.3c0-0.2,0-0.2-0.2-0.2
			c-1.7,0-3.4,0-5.1,0c-0.2,0-0.2,0.1-0.2,0.2C20.7,73.2,20.7,74.3,20.7,75.4z M11.5,78.8C11.5,78.8,11.5,78.8,11.5,78.8
			c0-2.3,0-4.6,0-6.9c0,0,0,0,0,0C11.5,74.3,11.5,76.5,11.5,78.8z M20.6,78.8C20.6,78.8,20.6,78.8,20.6,78.8c0-2.3,0-4.6,0-6.9
			c0,0,0,0,0,0C20.6,74.3,20.6,76.5,20.6,78.8z"/>
		<path class="st2" d="M34,0c0,0.1,0,0.1,0,0.2c0,3.2,0,6.3,0,9.5c0,0.2-0.1,0.3-0.3,0.3c-6.4,0-12.9,0-19.3,0
			c-0.2,0-0.3,0.1-0.3,0.3c0,6.3,0,12.7,0,19c0,0.2-0.1,0.3-0.3,0.3c-3.1,0-6.3,0-9.4,0c-0.2,0-0.3,0-0.3-0.3c0-9.8,0-19.5,0-29.3
			C14.2,0,24.1,0,34,0z"/>
		<path class="st2" d="M70.2,0c0,9.8,0,19.5,0,29.3c0,0.2-0.1,0.3-0.3,0.3c-3.1,0-6.3,0-9.4,0c-0.2,0-0.3,0-0.3-0.3
			c0-6.3,0-12.7,0-19c0-0.2,0-0.3-0.3-0.3c-6.4,0-12.9,0-19.3,0c-0.2,0-0.3,0-0.3-0.3c0-3.2,0-6.3,0-9.5c0-0.1,0-0.2,0-0.2
			C50.3,0,60.2,0,70.2,0z"/>
		<path class="st3" d="M37.2,20.8c3.9,0,7.8,0,11.8,0c0.2,0,0.3,0.1,0.3,0.3c0,7.8,0,15.5,0,23.3c0,0.2,0,0.3-0.3,0.3
			c-7.8,0-15.7,0-23.5,0c-0.2,0-0.3-0.1-0.3-0.3c0-7.8,0-15.5,0-23.3c0-0.2,0-0.3,0.3-0.3C29.4,20.8,33.3,20.8,37.2,20.8z"/>
		<path class="st2" d="M19.1,65.4c-4.9,0-9.8,0-14.6,0c-0.2,0-0.2,0-0.2-0.2c0-9.7,0-19.4,0-29c0-0.2,0-0.3,0.2-0.3
			c3.2,0,6.3,0,9.5,0c0.2,0,0.3,0.1,0.3,0.3c0,6.3,0,12.7,0,19c0,0.2,0,0.3,0.3,0.3c6.4,0,12.9,0,19.3,0c0.2,0,0.3,0.1,0.3,0.3
			c0,3.2,0,6.3,0,9.5c0,0.2,0,0.2-0.2,0.2C28.9,65.4,24,65.4,19.1,65.4z"/>
		<path class="st2" d="M55.3,65.4c-4.9,0-9.8,0-14.6,0c-0.2,0-0.3,0-0.3-0.2c0-3.2,0-6.3,0-9.5c0-0.2,0.1-0.3,0.3-0.3
			c6.4,0,12.9,0,19.3,0c0.2,0,0.3,0,0.3-0.3c0-6.3,0-12.7,0-19c0-0.2,0.1-0.3,0.3-0.3c3.2,0,6.3,0,9.5,0c0.2,0,0.2,0,0.2,0.2
			c0,9.7,0,19.4,0,29.1c0,0.2-0.1,0.2-0.2,0.2C65,65.4,60.1,65.4,55.3,65.4z"/>
		<path class="st4" d="M56.1,75.3c0,1.2,0,2.3,0,3.4c0,0.2-0.1,0.3-0.3,0.3c-0.6,0-1.2,0-1.8,0c-0.1,0-0.2,0-0.2-0.2
			c0-2.2,0-4.5,0-6.7c0-0.2,0.1-0.2,0.2-0.2c0.6,0,1.2,0,1.8,0c0.1,0,0.2,0,0.3,0.2c0.7,1.2,1.5,2.3,2.2,3.5c0,0,0,0.1,0.1,0.1
			c0-0.1,0-0.1,0-0.2c0-1.1,0-2.2,0-3.3c0-0.2,0-0.2,0.2-0.2c0.6,0,1.2,0,1.8,0c0.1,0,0.2,0,0.2,0.2c0,2.2,0,4.5,0,6.7
			c0,0.1,0,0.2-0.2,0.2c-0.6,0-1.3,0-1.9,0c-0.1,0-0.2-0.1-0.2-0.2c-0.7-1.1-1.4-2.2-2.2-3.3C56.2,75.4,56.2,75.4,56.1,75.3z"/>
		<path class="st4" d="M38.4,71.9c1.1,0,2.2,0,3.3,0c0.6,0,1.1,0,1.7,0.2c0.7,0.2,1.1,0.6,1.2,1.3c0.1,0.7-0.2,1.3-0.7,1.7
			c0,0-0.1,0.1-0.1,0.1c0.2,0.1,0.4,0.1,0.5,0.3c0.9,0.7,0.9,2.4-0.2,3c-0.4,0.3-0.9,0.4-1.3,0.4c-1.3,0.1-2.6,0-3.9,0
			c-0.1,0-0.2,0-0.4,0c0,0,0-0.1,0-0.1c0-0.1,0-0.1,0-0.2c0-2.2,0-4.4,0-6.6C38.4,72.1,38.4,72,38.4,71.9
			C38.4,71.9,38.4,71.9,38.4,71.9z M41.4,76c-0.2,0-0.4,0-0.6,0c-0.1,0-0.1,0-0.1,0.1c0,0.4,0,0.7,0,1.1c0,0.1,0,0.1,0.1,0.1
			c0.5,0,1,0.1,1.5-0.1c0.3-0.1,0.5-0.3,0.5-0.6c0-0.3-0.2-0.5-0.5-0.6C41.9,76,41.6,76,41.4,76z M40.6,74c0,0.2,0,0.4,0,0.5
			c0,0.1,0,0.1,0.1,0.1c0.4,0,0.8,0,1.2,0c0.3-0.1,0.5-0.3,0.5-0.6c0-0.3-0.2-0.6-0.6-0.6c-0.2,0-0.4,0-0.6,0c-0.2,0-0.5-0.1-0.6,0
			C40.5,73.6,40.6,73.9,40.6,74z"/>
		<path class="st5" d="M11.4,75.4c0,1.1,0,2.2,0,3.3c0,0.2,0,0.2-0.2,0.2c-0.6,0-1.3,0-1.9,0c-0.1,0-0.2,0-0.2-0.2
			c0-0.8,0-1.6,0-2.4c0-0.2,0-0.2-0.2-0.2c-0.6,0-1.2,0-1.8,0c-0.1,0-0.2,0-0.2,0.2c0,0.8,0,1.6,0,2.4c0,0.2-0.1,0.2-0.2,0.2
			c-0.6,0-1.3,0-1.9,0c-0.1,0-0.2,0-0.2-0.2c0-2.2,0-4.4,0-6.6c0-0.2,0-0.2,0.2-0.2c0.6,0,1.3,0,1.9,0c0.1,0,0.2,0,0.2,0.2
			c0,0.7,0,1.3,0,2c0,0.1,0,0.2,0.2,0.2c0.6,0,1.2,0,1.8,0c0.2,0,0.2,0,0.2-0.2c0-0.7,0-1.3,0-2c0-0.2,0-0.2,0.2-0.2
			c0.6,0,1.3,0,1.9,0c0.1,0,0.2,0,0.2,0.2C11.4,73.2,11.4,74.3,11.4,75.4z"/>
		<path class="st5" d="M12.8,71.9c0,0,0.1,0,0.1,0c1.2,0,2.4,0,3.6,0c0.7,0,1.3,0.2,1.8,0.6c0.7,0.5,1,1.2,1.1,2
			c0.2,1,0.1,1.9-0.4,2.9c-0.4,0.9-1.2,1.4-2.2,1.5c-0.5,0.1-1,0.1-1.5,0.1c-0.8,0-1.7,0-2.5,0c-0.1,0-0.2,0-0.2,0
			C12.8,76.6,12.8,74.2,12.8,71.9z M15.1,75.4c0,0.5,0,1.1,0,1.6c0,0.1,0,0.2,0.2,0.2c0.3,0,0.6,0,0.9,0c0.5,0,0.8-0.3,1-0.7
			c0.3-0.7,0.3-1.4,0-2.2c-0.1-0.3-0.4-0.5-0.7-0.6c-0.4-0.1-0.8-0.1-1.1-0.1c-0.2,0-0.2,0-0.2,0.2C15.1,74.3,15.1,74.9,15.1,75.4z"
			/>
		<path class="st4" d="M62.2,78.9c0-0.5,0-1,0-1.5c0-1.8,0-3.5,0-5.3c0-0.2,0.1-0.2,0.2-0.2c0.6,0,1.2,0,1.8,0c0.2,0,0.2,0,0.2,0.2
			c0,0.7,0,1.4,0,2.1c0.3-0.3,0.6-0.7,0.9-1c0.4-0.4,0.7-0.8,1.1-1.2c0.1-0.1,0.1-0.1,0.2-0.1c0.8,0,1.7,0,2.5,0
			c0,0.1-0.1,0.1-0.1,0.1c-0.8,0.8-1.5,1.6-2.3,2.4c-0.1,0.1-0.1,0.2,0,0.3c0.9,1.3,1.8,2.7,2.6,4.1c0,0,0.1,0.1,0.1,0.2
			c-0.6,0-1.2,0-1.8,0c-0.2,0-0.4,0-0.6,0c-0.2,0-0.4-0.1-0.5-0.3c-0.5-0.8-1-1.6-1.4-2.4c-0.1-0.1-0.1-0.1-0.2,0
			c-0.4,0.3-0.5,0.6-0.5,1.1c0,0.5,0,0.9,0,1.4c0,0.1,0,0.2-0.1,0.2C63.7,78.9,63,79,62.2,78.9C62.3,78.9,62.3,78.9,62.2,78.9z"/>
		<path class="st6" d="M32.8,74.6c-0.3,0-0.6,0-0.9,0c-0.1,0-0.2,0-0.2-0.2c-0.1-0.5-0.4-0.9-0.9-0.9c-0.6-0.1-1.1,0.1-1.3,0.6
			c-0.4,0.9-0.4,1.7,0,2.6c0.2,0.5,0.7,0.7,1.4,0.6c0.5-0.1,0.8-0.4,0.9-0.9c0-0.2,0.1-0.2,0.2-0.2c0.6,0,1.2,0,1.8,0
			c0.1,0,0.2,0,0.2,0.2c-0.2,1.6-1.5,2.6-2.8,2.7c-0.7,0.1-1.4,0-2.1-0.2c-1.1-0.4-1.8-1.2-2.1-2.3c-0.3-1-0.2-2,0.2-2.9
			c0.4-0.9,1.2-1.6,2.2-1.8c1.2-0.3,2.3-0.2,3.3,0.5c0.7,0.5,1.1,1.2,1.2,2.1c0,0.1,0,0.2-0.2,0.2C33.4,74.6,33.1,74.6,32.8,74.6z"
			/>
		<path class="st4" d="M45.5,78.9c0.3-1,0.7-1.9,1-2.8c0.5-1.4,1-2.7,1.5-4.1c0-0.1,0.1-0.2,0.3-0.2c0.7,0,1.3,0,2,0
			c0.1,0,0.2,0,0.3,0.2c0.8,2.2,1.6,4.4,2.4,6.7c0.1,0.2,0,0.2-0.2,0.2c-0.6,0-1.3,0-1.9,0c-0.1,0-0.2,0-0.2-0.2
			c0-0.2-0.1-0.4-0.2-0.6c0-0.1-0.1-0.1-0.2-0.1c-0.7,0-1.3,0-2,0c-0.1,0-0.2,0-0.2,0.2c0,0.2-0.1,0.4-0.2,0.6
			c0,0.2-0.1,0.2-0.3,0.2C46.9,78.9,46.2,78.9,45.5,78.9z M49.9,76.6c-0.2-0.8-0.5-1.7-0.7-2.6c-0.2,0.9-0.5,1.7-0.7,2.5
			c0,0.1,0,0.1,0.1,0.1C49,76.6,49.5,76.6,49.9,76.6z"/>
		<path class="st6" d="M20.7,75.4c0-1.1,0-2.2,0-3.3c0-0.2,0-0.2,0.2-0.2c1.7,0,3.4,0,5.1,0c0.2,0,0.2,0,0.2,0.2c0,0.4,0,0.9,0,1.3
			c0,0.2,0,0.2-0.2,0.2c-0.9,0-1.9,0-2.8,0c-0.2,0-0.2,0.1-0.2,0.2c0,0.2,0,0.4,0,0.7c0,0.2,0,0.2,0.2,0.2c0.7,0,1.4,0,2.1,0
			c0.2,0,0.2,0,0.2,0.2c0,0.4,0,0.9,0,1.3c0,0.2-0.1,0.2-0.2,0.2c-0.7,0-1.4,0-2.2,0c-0.2,0-0.2,0-0.2,0.2c0,0.7,0,1.4,0,2.1
			c0,0.2-0.1,0.2-0.2,0.2c-0.6,0-1.2,0-1.9,0c-0.2,0-0.2,0-0.2-0.2C20.7,77.6,20.7,76.5,20.7,75.4z"/>
		<path class="st7" d="M38.4,71.9C38.4,71.9,38.4,71.9,38.4,71.9c0,0.2-0.1,0.2-0.1,0.3c0,2.2,0,4.3,0,6.5c0,0.1,0,0.1,0,0.2
			c0,0,0,0.1,0,0.1c-0.1,0-0.1-0.1-0.1-0.2c0-2.2,0-4.5,0-6.7C38.3,72,38.3,71.9,38.4,71.9z"/>
		<path class="st7" d="M11.5,78.8c0-2.3,0-4.6,0-6.9c0,0,0,0,0,0C11.5,74.3,11.5,76.5,11.5,78.8C11.5,78.8,11.5,78.8,11.5,78.8z"/>
		<path class="st7" d="M12.8,71.9c0,2.3,0,4.7,0,7c-0.1-0.1-0.1-0.1-0.1-0.2c0-2.2,0-4.4,0-6.5C12.8,72,12.7,72,12.8,71.9z"/>
		<path class="st7" d="M20.6,78.8c0-2.3,0-4.6,0-6.9c0,0,0,0,0,0C20.6,74.3,20.6,76.5,20.6,78.8C20.6,78.8,20.6,78.8,20.6,78.8z"/>
		<path class="st7" d="M62.2,78.9C62.3,78.9,62.3,78.9,62.2,78.9c-0.1,0-0.1-0.1-0.1-0.2c0-2.2,0-4.4,0-6.7c0,0,0-0.1,0-0.1
			c0,0.1,0,0.2,0,0.3c0,2.1,0,4.3,0,6.4C62.2,78.7,62.2,78.8,62.2,78.9z"/>
		<path class="st8" d="M41.4,76c0.2,0,0.5,0,0.8,0.1c0.3,0.1,0.5,0.3,0.5,0.6c0,0.3-0.2,0.5-0.5,0.6c-0.5,0.1-1,0.1-1.5,0.1
			c-0.1,0-0.1-0.1-0.1-0.1c0-0.4,0-0.7,0-1.1c0-0.1,0-0.1,0.1-0.1C40.9,76,41.2,76,41.4,76z"/>
		<path class="st8" d="M40.6,74c0-0.2-0.1-0.4,0-0.5c0.1-0.1,0.4,0,0.6,0c0.2,0,0.4,0,0.6,0c0.4,0,0.6,0.3,0.6,0.6
			c0,0.3-0.2,0.5-0.5,0.6c-0.4,0.1-0.8,0-1.2,0c-0.1,0-0.1-0.1-0.1-0.1C40.6,74.4,40.6,74.2,40.6,74z"/>
		<path class="st1" d="M38.4,78.8c0-0.1,0-0.1,0-0.2c0-2.2,0-4.3,0-6.5c0-0.1,0-0.1,0-0.2c0,0.1,0,0.1,0,0.2c0,2.2,0,4.4,0,6.6
			C38.4,78.7,38.4,78.8,38.4,78.8z"/>
		<path class="st9" d="M15.1,75.4c0-0.5,0-1,0-1.6c0-0.2,0-0.2,0.2-0.2c0.4,0,0.8,0,1.1,0.1c0.3,0.1,0.6,0.3,0.7,0.6
			c0.3,0.7,0.3,1.4,0,2.2c-0.2,0.5-0.5,0.7-1,0.7c-0.3,0-0.6,0-0.9,0c-0.1,0-0.2,0-0.2-0.2C15.1,76.5,15.1,75.9,15.1,75.4z"/>
		<path class="st10" d="M49.9,76.6c-0.5,0-0.9,0-1.4,0c-0.1,0-0.1,0-0.1-0.1c0.2-0.8,0.5-1.6,0.7-2.5C49.5,74.9,49.7,75.7,49.9,76.6
			z"/>
	</g>
</g>
</svg>
